<?xml version="1.0" encoding="utf-8"?>
<!-- Generator: Adobe Illustrator 18.0.0, SVG Export Plug-In . SVG Version: 6.00 Build 0)  -->
<!DOCTYPE svg PUBLIC "-//W3C//DTD SVG 1.1//EN" "http://www.w3.org/Graphics/SVG/1.1/DTD/svg11.dtd">
<svg version="1.1" id="Layer_1" xmlns="http://www.w3.org/2000/svg" xmlns:xlink="http://www.w3.org/1999/xlink" x="0px" y="0px"
	 viewBox="-18.4 395.2 376.4 1.6" enable-background="new -18.4 395.2 376.4 1.6" xml:space="preserve">
<g>
	<path d="M-13.4,396.8C-13.4,396.7-13.4,396.7-13.4,396.8C-13.4,396.7-13.4,396.7-13.4,396.8 M-13.3,396.3L-13.3,396.3L-13.3,396.3
		L-13.3,396.3 M-16.9,396.5L-16.9,396.5L-16.9,396.5 M-18.2,395.9L-18.2,395.9l-0.2,0.2l0.2,0.2l0,0h0.8c0.1,0.2,0.2,0.3,0.4,0.3
		l0,0l0,0c0,0,0,0,0,0l0,0c0.2,0,0.7-0.2,0.8-0.2c0.1,0,0.1-0.1,0.1-0.1h0.5c0.1,0.2,0.2,0.3,0.3,0.3l0,0h0c0,0,0.7-0.1,0.8-0.1
		c0.1,0,0.1-0.1,0.1-0.1s0,0,0-0.1h0.4c0,0.2,0.2,0.5,0.4,0.5c0,0,0,0,0.1,0c0.2,0,0.7,0,0.8,0c0.1,0,0.1-0.1,0.1-0.1
		s0.1-0.2,0.2-0.4H351v-0.4H-12l-0.6-0.3c0,0-0.1,0-0.2,0.1c0,0-0.1,0.1-0.2,0.3h-0.6c-0.1-0.2-0.2-0.3-0.2-0.3c0,0-0.1,0-0.1,0
		l-0.7-0.3c0,0-0.1,0-0.2,0.1c0,0-0.2,0.3-0.2,0.5l0,0h-0.3c-0.1-0.2-0.3-0.4-0.4-0.5c0,0-0.1,0-0.1,0l-0.8-0.2c0,0-0.1,0.1-0.2,0.1
		c0,0-0.1,0.3-0.2,0.6l0,0H-17c-0.1-0.1-0.3-0.4-0.5-0.5c-0.2-0.1-0.3,0.2-0.3,0.5H-18.2L-18.2,395.9z"/>
	<path d="M353,396.7C353,396.7,353,396.7,353,396.7C353,396.7,353,396.7,353,396.7 M352.9,396.2L352.9,396.2L352.9,396.2
		L352.9,396.2 M356.5,396.5L356.5,396.5L356.5,396.5 M357.8,395.9L357.8,395.9l0.2,0.2l-0.2,0.2l0,0H357c-0.1,0.2-0.2,0.3-0.4,0.3
		l0,0l0,0c0,0,0,0,0,0l0,0c-0.2,0-0.7-0.2-0.8-0.2c-0.1,0-0.1-0.1-0.1-0.1h-0.5c-0.1,0.2-0.2,0.3-0.3,0.3l0,0h0c0,0-0.7-0.1-0.8-0.1
		c-0.1,0-0.1-0.1-0.1-0.1s0,0,0-0.1h-0.4c0,0.2-0.2,0.5-0.4,0.5c0,0,0,0-0.1,0c-0.2,0-0.7,0-0.8,0c-0.1,0-0.1-0.1-0.1-0.1
		s-0.1-0.2-0.2-0.4h-1v-0.4h0.6l0.6-0.3c0,0,0.1,0,0.2,0.1c0,0,0.1,0.1,0.2,0.3h0.6c0.1-0.2,0.2-0.3,0.2-0.3c0,0,0,0,0.1,0l0.7-0.3
		c0,0,0.1,0,0.2,0.1c0,0,0.2,0.3,0.2,0.5l0,0h0.3c0.1-0.2,0.3-0.4,0.4-0.5c0,0,0.1,0,0.1,0l0.7-0.2c0,0,0.1,0.1,0.2,0.1
		c0,0,0.1,0.3,0.2,0.6l0,0h0.3c0.2-0.2,0.3-0.4,0.5-0.5c0.2-0.1,0.3,0.2,0.4,0.5L357.8,395.9L357.8,395.9z"/>
</g>
</svg>
