<?xml version="1.0" encoding="utf-8"?>
<!-- Generator: Adobe Illustrator 18.0.0, SVG Export Plug-In . SVG Version: 6.00 Build 0)  -->
<!DOCTYPE svg PUBLIC "-//W3C//DTD SVG 1.1//EN" "http://www.w3.org/Graphics/SVG/1.1/DTD/svg11.dtd">
<svg version="1.1" id="Layer_1" xmlns="http://www.w3.org/2000/svg" xmlns:xlink="http://www.w3.org/1999/xlink" x="0px" y="0px"
	 viewBox="0 0 357 4.2" enable-background="new 0 0 357 4.2" xml:space="preserve">
<g>
	<line fill="#FFFFFF" stroke="#FFFFFF" x1="338.7" y1="2.3" x2="0" y2="2.3"/>
	<path fill="#FFFFFF" d="M344,4.1C343.9,4,343.9,4,344,4.1C343.9,4,343.9,4,344,4.1 M343.6,2.8C343.6,2.8,343.6,2.8,343.6,2.8
		L343.6,2.8C343.6,2.8,343.6,2.8,343.6,2.8 M353,3.5C353,3.5,353,3.5,353,3.5C353,3.5,353,3.5,353,3.5 M356.5,1.9l-1.1,0
		c-0.1-0.7-0.4-1.6-1-1.3c-0.4,0.2-0.9,0.9-1.2,1.3l-0.7,0c0-0.1-0.1-0.1-0.1-0.1c-0.2-0.7-0.4-1.5-0.5-1.5
		c-0.1-0.1-0.4-0.2-0.4-0.2l-1.7,0.5c-0.1,0-0.2,0-0.2,0.1c-0.3,0.2-0.7,0.9-1,1.3l-0.8,0c0,0,0,0,0,0c-0.3-0.7-0.5-1.4-0.6-1.4
		c-0.2-0.1-0.4-0.2-0.4-0.2l-1.7,0.7c-0.1,0-0.1,0-0.2,0.1c-0.2,0.2-0.4,0.5-0.6,0.8l-1.5,0c-0.2-0.4-0.4-0.7-0.4-0.7
		c-0.2,0-0.4-0.2-0.4-0.2l-1.6,0.8l-1.6,0l0,1l2.6,0c0.3,0.5,0.6,1.1,0.6,1.1s0.1,0.3,0.3,0.3c0.2,0,1.5,0,2,0c0.1,0,0.1,0,0.2,0
		c0.5-0.1,0.8-0.8,1-1.3l1,0c0.1,0.2,0.1,0.3,0.1,0.3s0.1,0.3,0.3,0.3c0.2,0,2.2,0.3,2.2,0.3s0,0-0.1,0c0,0,0,0,0,0
		c0.4-0.1,0.7-0.4,0.9-0.8l1.2,0c0,0.1,0.1,0.3,0.3,0.3c0.2,0.1,1.6,0.4,2,0.5c0,0,0,0,0,0c0.1,0,0.1,0,0.1,0s0,0,0,0c0,0,0,0,0,0
		c0.4,0,0.7-0.4,1-0.8l2.1,0v0l0.5-0.5L356.5,1.9L356.5,1.9L356.5,1.9z"/>
</g>
</svg>
