<?xml version="1.0" encoding="utf-8"?>
<!-- Generator: Adobe Illustrator 18.0.0, SVG Export Plug-In . SVG Version: 6.00 Build 0)  -->
<!DOCTYPE svg PUBLIC "-//W3C//DTD SVG 1.1//EN" "http://www.w3.org/Graphics/SVG/1.1/DTD/svg11.dtd">
<svg version="1.1" id="Layer_1" xmlns="http://www.w3.org/2000/svg" xmlns:xlink="http://www.w3.org/1999/xlink" x="0px" y="0px"
	 viewBox="0 0 357 4.2" enable-background="new 0 0 357 4.2" xml:space="preserve">
<g>
	<line fill="#FFFFFF" stroke="#FFFFFF" x1="18.3" y1="2.3" x2="357" y2="2.3"/>
	<path fill="#FFFFFF" d="M13,4.1C13.1,4,13.1,4,13,4.1C13.1,4,13.1,4,13,4.1 M13.4,2.8C13.4,2.8,13.4,2.8,13.4,2.8L13.4,2.8
		C13.4,2.8,13.4,2.8,13.4,2.8 M4,3.5C4,3.5,4,3.5,4,3.5C4,3.5,4,3.5,4,3.5 M0.5,1.9L0.5,1.9L0,2.4L0.5,3v0l2.1,0
		c0.2,0.4,0.6,0.7,1,0.7c0,0,0,0,0,0c0,0,0,0,0,0s0,0,0.1,0c0,0,0,0,0,0c0.4-0.1,1.8-0.4,2-0.5C5.9,3.2,6,3,6,2.9l1.2,0
		c0.2,0.4,0.5,0.8,0.9,0.8c0,0,0,0,0,0c0,0-0.1,0-0.1,0s1.9-0.2,2.2-0.3c0.2,0,0.3-0.3,0.3-0.3s0-0.1,0.1-0.3l1,0
		c0.1,0.5,0.4,1.2,1,1.3c0.1,0,0.1,0,0.2,0c0.5,0,1.8,0,2,0c0.2,0,0.3-0.3,0.3-0.3s0.3-0.6,0.6-1.1l2.6,0l0-1l-1.6,0L15.2,1
		c0,0-0.3,0.1-0.4,0.2c-0.1,0-0.2,0.3-0.4,0.7l-1.5,0c-0.2-0.4-0.4-0.7-0.6-0.8c-0.1-0.1-0.2-0.1-0.2-0.1l-1.7-0.7
		c0,0-0.3,0.1-0.4,0.2c-0.1,0-0.4,0.7-0.6,1.4c0,0,0,0,0,0l-0.8,0c-0.3-0.4-0.7-1.1-1-1.3c-0.1,0-0.2-0.1-0.2-0.1L5.4,0
		c0,0-0.3,0.2-0.4,0.2C4.9,0.3,4.7,1,4.5,1.7c0,0-0.1,0.1-0.1,0.1l-0.7,0C3.4,1.5,2.9,0.8,2.5,0.6C2,0.3,1.7,1.2,1.6,1.9L0.5,1.9
		L0.5,1.9z"/>
</g>
</svg>
