<?xml version="1.0" encoding="utf-8"?>
<!-- Generator: Adobe Illustrator 17.1.0, SVG Export Plug-In . SVG Version: 6.00 Build 0)  -->
<!DOCTYPE svg PUBLIC "-//W3C//DTD SVG 1.1//EN" "http://www.w3.org/Graphics/SVG/1.1/DTD/svg11.dtd">
<svg version="1.1" id="Layer_1" xmlns="http://www.w3.org/2000/svg" xmlns:xlink="http://www.w3.org/1999/xlink" viewBox="0 0 32 32">
	<g id="instagram">
	  <g>
	    <path fill="#FFFFFF" d="M16,32c8.837,0,16-7.164,16-16S24.837,0,16,0C7.162,0,0,7.164,0,16S7.162,32,16,32"></path>
	    <path fill="#000000" d="M20.909,8h-9.815c-1.705,0-3.092,1.387-3.092,3.092v3.265v6.55c0,1.705,1.387,3.092,3.092,3.092h9.815
	c1.705,0,3.093-1.387,3.093-3.092v-6.55v-3.265C24.002,9.387,22.614,8,20.909,8z M21.797,9.845l0.354-0.002v0.353v2.359
	l-2.703,0.009l-0.01-2.712L21.797,9.845z M13.719,14.357c0.512-0.709,1.344-1.174,2.283-1.174s1.771,0.465,2.283,1.174
	c0.334,0.463,0.533,1.029,0.533,1.643c0,1.553-1.264,2.815-2.816,2.815S13.186,17.553,13.186,16
	C13.186,15.386,13.386,14.82,13.719,14.357z M22.443,20.908c0,0.846-0.688,1.533-1.534,1.533h-9.815
	c-0.846,0-1.533-0.687-1.533-1.533v-6.55h2.389c-0.206,0.508-0.322,1.062-0.322,1.643c0,2.413,1.963,4.375,4.375,4.375
	s4.375-1.962,4.375-4.375c0-0.581-0.117-1.135-0.322-1.643h2.389V20.908z"></path>
	  </g>
	</g>
</svg>
