<?xml version="1.0" encoding="utf-8"?>
<!-- Generator: Adobe Illustrator 18.0.0, SVG Export Plug-In . SVG Version: 6.00 Build 0)  -->
<!DOCTYPE svg PUBLIC "-//W3C//DTD SVG 1.1//EN" "http://www.w3.org/Graphics/SVG/1.1/DTD/svg11.dtd">
<svg version="1.1" id="Layer_1" xmlns="http://www.w3.org/2000/svg" xmlns:xlink="http://www.w3.org/1999/xlink" x="0px" y="0px"
	 viewBox="0 0 612 567.4" enable-background="new 0 0 612 567.4" xml:space="preserve">
<g>
	<path fill="#000000" d="M304.2,19.5c-144.6,0-262.2,117.6-262.2,262.2c0,144.6,117.6,262.2,262.2,262.2
		c144.6,0,262.2-117.6,262.2-262.2C566.4,137.1,448.8,19.5,304.2,19.5z M304.2,533.1c-138.6,0-251.4-112.8-251.4-251.4
		c0-138.6,112.8-251.4,251.4-251.4c138.6,0,251.4,112.8,251.4,251.4C555.6,420.3,442.8,533.1,304.2,533.1z"/>
	<path fill="#000000" d="M304.2,48.1c-128.8,0-233.6,104.8-233.6,233.6c0,128.8,104.8,233.6,233.6,233.6
		c128.8,0,233.6-104.8,233.6-233.6C537.8,152.9,433,48.1,304.2,48.1z M287.3,110.2h33.8h14.7l-25.2,106.4l-2.7,0h-7.4h-2.7
		l-25.2-106.4H287.3z M370.1,335.1c-7.9,83.4,8.5,118.1,8.5,118.1l-42.6,0l1.8-16.1l-67.1,0l1.8,16.1l-42.6,0
		c0,0,16.4-34.8,8.5-118.1c-7.9-83.4-65.2-117-65.2-117h82.5l9-21.7l14.8,36.4h49.4l14.8-36.4l9,21.7h82.5
		C435.3,218.1,378,251.7,370.1,335.1z"/>
	<path fill="#000000" d="M326.8,301.2l-7.8,80.6h-1.7h-26.1h-1.7l-7.8-80.6c-1.6-15.3-11.7-33.4-11.7-33.4
		c-15.6-32.9-33.9-38.7-33.9-38.7l31,172.2h74.3l31.1-172.3c0,0-18.4,5.8-34,38.7C338.5,267.8,328.6,286,326.8,301.2z"/>
</g>
</svg>
