<?xml version="1.0" encoding="utf-8"?>
<!-- Generator: Adobe Illustrator 18.0.0, SVG Export Plug-In . SVG Version: 6.00 Build 0)  -->
<!DOCTYPE svg PUBLIC "-//W3C//DTD SVG 1.1//EN" "http://www.w3.org/Graphics/SVG/1.1/DTD/svg11.dtd">
<svg version="1.1" id="Layer_1" xmlns="http://www.w3.org/2000/svg" xmlns:xlink="http://www.w3.org/1999/xlink" x="0px" y="0px"
	 viewBox="0 0 6.4 1.6" enable-background="new 0 0 6.4 1.6" xml:space="preserve">
<g>
	<path fill="#010101" d="M5,1.6C5,1.5,5,1.5,5,1.6C5,1.5,5,1.5,5,1.6 M5.1,1.1L5.1,1.1L5.1,1.1L5.1,1.1 M1.5,1.3L1.5,1.3L1.5,1.3
		 M0.2,0.7L0.2,0.7L0,0.9l0.2,0.2l0,0H1c0.1,0.2,0.2,0.3,0.4,0.3l0,0l0,0c0,0,0,0,0,0l0,0c0.2,0,0.7-0.2,0.8-0.2
		c0.1,0,0.1-0.1,0.1-0.1h0.5c0.1,0.2,0.2,0.3,0.3,0.3l0,0h0c0,0,0.7-0.1,0.8-0.1C4,1.3,4,1.2,4,1.2s0,0,0-0.1h0.4
		c0,0.2,0.2,0.5,0.4,0.5c0,0,0,0,0.1,0c0.2,0,0.7,0,0.8,0s0.1-0.1,0.1-0.1S5.9,1.2,6,1h0.4V0.7h0L5.8,0.4c0,0-0.1,0-0.2,0.1
		c0,0-0.1,0.1-0.2,0.3H4.9C4.9,0.6,4.8,0.5,4.7,0.4c0,0-0.1,0-0.1,0L4,0.1c0,0-0.1,0-0.2,0.1c0,0-0.2,0.3-0.2,0.5l0,0H3.3
		C3.2,0.6,3,0.3,2.9,0.2c0,0-0.1,0-0.1,0L2.1,0c0,0-0.1,0.1-0.2,0.1c0,0-0.1,0.3-0.2,0.6l0,0H1.4C1.3,0.6,1.1,0.3,1,0.2
		C0.8,0.1,0.7,0.5,0.6,0.7H0.2L0.2,0.7z"/>
</g>
</svg>
