<?xml version="1.0" encoding="utf-8"?>
<!-- Generator: Adobe Illustrator 18.0.0, SVG Export Plug-In . SVG Version: 6.00 Build 0)  -->
<!DOCTYPE svg PUBLIC "-//W3C//DTD SVG 1.1//EN" "http://www.w3.org/Graphics/SVG/1.1/DTD/svg11.dtd">
<svg version="1.1" id="Layer_1" xmlns="http://www.w3.org/2000/svg" xmlns:xlink="http://www.w3.org/1999/xlink" x="0px" y="0px"
	 viewBox="0 0 303.1 55.2" enable-background="new 0 0 303.1 55.2" xml:space="preserve">
<path fill="#FFFFFF" d="M13,43.3L8.2,31.5H5.5v11.8H0V14.4h8c6.6,0,9.8,3.2,9.8,8.6c0,3.6-1.3,6.2-4.4,7.4l5.4,12.9H13z M5.5,27h2.8
	c2.4,0,3.9-1.2,3.9-4c0-2.8-1.5-4-3.9-4H5.5V27z"/>
<path fill="#FFFFFF" d="M21.8,23.7c0-7.1,3.8-9.7,9.1-9.7s9.1,2.6,9.1,9.7V34c0,7.1-3.8,9.7-9.1,9.7s-9.1-2.6-9.1-9.7V23.7z
	 M27.3,34.7c0,3.2,1.4,4.1,3.6,4.1s3.6-0.9,3.6-4.1V23c0-3.2-1.4-4.1-3.6-4.1s-3.6,0.9-3.6,4.1V34.7z"/>
<path fill="#FFFFFF" d="M50.3,14.4v20.2c0,2.8,1.2,4.2,3.9,4.2c2.7,0,3.9-1.4,3.9-4.2V14.4h5.5v20.2c0,6.4-3.8,9-9.4,9
	c-5.7,0-9.4-2.7-9.4-9V14.4H50.3z"/>
<path fill="#FFFFFF" d="M85.6,14.4v4.9h-6.4v24h-5.5v-24h-6.4v-4.9H85.6z"/>
<path fill="#FFFFFF" d="M88.9,43.3V14.4H104v4.9h-9.6v6.6h7.3v4.9h-7.3v7.6h10v4.9H88.9z"/>
<g>
	<path fill="#FFFFFF" d="M145.8,29.5c-0.9,0-2,0.8-2.6,1.3v6.3c0,1.9,0.8,2.8,2.3,2.8c1.5,0,2.3-0.9,2.3-2.8v-4.8
		C147.9,30.4,147,29.5,145.8,29.5z"/>
	<path fill="#FFFFFF" d="M127.9,29.5c-0.9,0-2,0.8-2.6,1.3v6.3c0,1.9,0.8,2.8,2.3,2.8c1.5,0,2.3-0.9,2.3-2.8v-4.8
		C130,30.4,129.2,29.5,127.9,29.5z"/>
	<path fill="#FFFFFF" d="M158.8,25.2c-1.9-2.9-0.8-6.5-0.8-6.5c1.5-5.9,5.3-10,5.3-10l-9.3-8.5c-1.4,1.6-4.9,2.5-8.8,2.7
		c-3.5,0.2-8.1-2.3-9-2.9l0-0.1c0,0,0,0-0.1,0c0,0-0.1,0-0.1,0l0,0.1c-0.9,0.5-5.4,3.1-9,2.9c-3.9-0.2-7.4-1.1-8.8-2.7l-9.3,8.5
		c0,0,3.8,4.1,5.3,10c0,0,1,3.6-0.8,6.5c0,0-2.5,4.9-2.9,5.6c-0.4,0.8-1.8,5.1-1.5,7.9c0.3,2.8,1.1,5.4,4.2,8.1
		c3.1,2.8,5.9,3.1,6.3,3.2c0.9,0.3,3.4,0.2,6.7,0.9c0,0,5.1,1.4,6.3,2.3c0,0,3.4,1.6,3.4,1.8l0.1,0l0.1,0c0-0.2,3.4-1.8,3.4-1.8
		c1.2-0.9,6.3-2.3,6.3-2.3c3.3-0.7,5.8-0.5,6.7-0.9c0.4-0.2,3.2-0.5,6.3-3.2c3.1-2.7,3.9-5.3,4.2-8.1c0.3-2.8-1.1-7.2-1.5-7.9
		C161.3,30.1,158.8,25.2,158.8,25.2z M134.8,35c0,6.1-2.1,8.9-7.1,8.9c-5,0-7.1-2.5-7.1-8V22c0-5.5,2.1-8,7.1-8
		c3.9-0.1,6.5,2.7,6.5,6.4v1.8h-4.3v-1.5c0-1.9-0.6-2.8-2.1-2.8c-1.5,0-2.3,0.9-2.3,2.8v6.8c1.3-1.3,2.1-1.9,4.1-1.9
		c2.9,0,5.3,1.7,5.3,6V35z M152.6,35c0,6.1-2.1,8.9-7.1,8.9c-5,0-7.1-2.5-7.1-8V22c0-5.5,2.1-8,7.1-8c3.9-0.1,6.5,2.7,6.5,6.4v1.8
		h-4.3v-1.5c0-1.9-0.6-2.8-2.1-2.8c-1.5,0-2.3,0.9-2.3,2.8v6.8c1.3-1.3,2.1-1.9,4.1-1.9c2.9,0,5.3,1.7,5.3,6V35z"/>
</g>
<g>
	<path fill="#FFFFFF" d="M168.3,14.4h7.8c3,0,5.3,0.6,6.9,1.8c1.6,1.2,2.4,3.1,2.4,5.6c0,2.6-1.2,4.6-3.6,6c0.7,0.5,1.4,1,1.9,1.4
		c0.5,0.5,1,1,1.3,1.5c0.3,0.5,0.6,1.2,0.7,1.8c0.2,0.7,0.2,1.5,0.2,2.4c0,1.4-0.2,2.7-0.7,3.7c-0.5,1-1.1,1.9-2,2.6s-1.9,1.2-3,1.5
		c-1.2,0.3-2.5,0.5-4,0.5h-8.1V14.4z M173.8,25.9h1.9c1.3,0,2.3-0.3,3-1c0.7-0.6,1.1-1.5,1.1-2.4c0-1.1-0.3-1.9-0.9-2.5
		c-0.6-0.6-1.6-0.9-2.9-0.9h-2.2V25.9z M173.8,38.7h2.3c1.4,0,2.5-0.4,3.3-1.1c0.7-0.8,1.1-1.8,1.1-3.1c0-1.4-0.4-2.4-1.3-3.1
		c-0.9-0.7-2-1-3.5-1h-1.9V38.7z"/>
	<path fill="#FFFFFF" d="M203.5,43.3l-4.8-11.8h-2.6v11.8h-5.5V14.4h8c3.3,0,5.8,0.8,7.4,2.3c1.6,1.5,2.4,3.6,2.4,6.4
		c0,1.8-0.3,3.3-1,4.6c-0.7,1.3-1.8,2.2-3.3,2.8l5.4,12.9H203.5z M196.1,27h2.8c1.2,0,2.2-0.3,2.9-0.9s1-1.6,1-3.1
		c0-1.4-0.3-2.4-1-3.1c-0.7-0.6-1.7-0.9-2.9-0.9h-2.8V27z"/>
	<path fill="#FFFFFF" d="M218.6,14.4v20.2c0,1.4,0.3,2.4,0.9,3.1c0.6,0.7,1.6,1.1,3,1.1c2.6,0,3.9-1.4,3.9-4.2V14.4h5.5v20.2
		c0,1.6-0.2,3-0.7,4.1c-0.5,1.1-1.1,2.1-1.9,2.8c-0.8,0.7-1.8,1.3-3,1.6c-1.2,0.3-2.4,0.5-3.9,0.5c-1.4,0-2.7-0.2-3.9-0.5
		s-2.2-0.9-3-1.6c-0.8-0.7-1.5-1.7-1.9-2.8c-0.4-1.1-0.7-2.5-0.7-4.1V14.4H218.6z"/>
	<path fill="#FFFFFF" d="M237.6,43.3V14.4h6l7.7,17.1h0.1V14.4h5v28.9h-5.3l-8.4-18.6h-0.1v18.6H237.6z"/>
	<path fill="#FFFFFF" d="M266.7,34.7c0,1.6,0.3,2.7,1,3.2c0.6,0.6,1.5,0.8,2.6,0.8s2-0.3,2.6-0.8c0.6-0.6,1-1.6,1-3.2v-1.9h5.5V34
		c0,1.8-0.2,3.3-0.7,4.5s-1.1,2.2-1.9,3c-0.8,0.8-1.8,1.3-2.9,1.7s-2.3,0.5-3.7,0.5c-1.3,0-2.6-0.2-3.7-0.5
		c-1.1-0.3-2.1-0.9-2.9-1.7c-0.8-0.8-1.4-1.8-1.9-3s-0.7-2.7-0.7-4.5V23.7c0-1.8,0.2-3.3,0.7-4.5c0.5-1.2,1.1-2.2,1.9-3
		c0.8-0.8,1.8-1.3,2.9-1.7c1.1-0.3,2.3-0.5,3.7-0.5c1.3,0,2.6,0.2,3.7,0.5s2.1,0.9,2.9,1.7c0.8,0.8,1.4,1.8,1.9,3
		c0.5,1.2,0.7,2.7,0.7,4.5v0.1h-5.5V23c0-1.6-0.3-2.7-1-3.2c-0.6-0.6-1.5-0.8-2.6-0.8s-2,0.3-2.6,0.8c-0.6,0.6-1,1.6-1,3.2V34.7z"/>
	<path fill="#FFFFFF" d="M284.2,43.3V14.4h5.5v11.5h7.8V14.4h5.5v28.9h-5.5V30.8h-7.8v12.5H284.2z"/>
</g>
</svg>
