<?xml version="1.0" encoding="utf-8"?>
<!-- Generator: Adobe Illustrator 18.0.0, SVG Export Plug-In . SVG Version: 6.00 Build 0)  -->
<!DOCTYPE svg PUBLIC "-//W3C//DTD SVG 1.1//EN" "http://www.w3.org/Graphics/SVG/1.1/DTD/svg11.dtd">
<svg version="1.1" id="Layer_1" xmlns="http://www.w3.org/2000/svg" xmlns:xlink="http://www.w3.org/1999/xlink" x="0px" y="0px"
	 viewBox="101.4 294.5 153.3 200.6" enable-background="new 101.4 294.5 153.3 200.6" xml:space="preserve">
<g>
	<polygon fill="#FFFFFF" points="175.8,356.7 180.1,356.7 181.7,356.7 196.5,294.5 187.8,294.5 168.1,294.5 159.5,294.5 
		174.2,356.7 	"/>
	<path fill="#FFFFFF" d="M254.6,357.6h-48.3l-5.3-12.7l-8.7,21.3h-28.9l-8.7-21.3l-5.3,12.7h-48.3c0,0,33.5,19.7,38.1,68.4
		c4.6,48.8-5,69.1-5,69.1h24.9l-1.1-9.4h39.3l-1.1,9.4h24.9c0,0-9.6-20.4-5-69.1C221.1,377.3,254.6,357.6,254.6,357.6z M199.7,464.9
		h-43.5l-18.1-100.7c0,0,10.8,3.3,19.8,22.6c0,0,5.9,10.6,6.8,19.5l4.6,47.1h1h15.3h1l4.6-47.1c1.1-9,6.8-19.5,6.8-19.5
		c9.1-19.2,19.9-22.6,19.9-22.6L199.7,464.9z"/>
</g>
</svg>
